<svg width="32" height="32" viewBox="0 0 32 32" fill="none" xmlns="http://www.w3.org/2000/svg">
<path opacity="0.4" d="M16.0003 22.6667V25.84C16.0003 28.3333 15.0003 29.3333 12.4937 29.3333H6.16033C3.66699 29.3333 2.66699 28.3333 2.66699 25.84V19.5067C2.66699 17 3.66699 16 6.16033 16H9.33366V19.16C9.33366 21.6667 10.3337 22.6667 12.827 22.6667H16.0003Z" fill="white"/>
<path opacity="0.6" d="M22.6663 15.9999V19.1599C22.6663 21.6666 21.6663 22.6666 19.1597 22.6666H12.8263C10.333 22.6666 9.33301 21.6666 9.33301 19.1599V12.8266C9.33301 10.3333 10.333 9.33325 12.8263 9.33325H15.9997V12.4933C15.9997 14.9999 16.9997 15.9999 19.493 15.9999H22.6663Z" fill="white"/>
<path d="M29.3333 6.16008V12.4934C29.3333 15.0001 28.3333 16.0001 25.8267 16.0001H19.4933C17 16.0001 16 15.0001 16 12.4934V6.16008C16 3.66675 17 2.66675 19.4933 2.66675H25.8267C28.3333 2.66675 29.3333 3.66675 29.3333 6.16008Z" fill="white"/>
</svg>
