<svg width="35" height="35" viewBox="0 0 35 35" fill="none" xmlns="http://www.w3.org/2000/svg">
<path d="M32.0837 30.9895H2.91699C2.31908 30.9895 1.82324 31.4853 1.82324 32.0833C1.82324 32.6812 2.31908 33.177 2.91699 33.177H32.0837C32.6816 33.177 33.1774 32.6812 33.1774 32.0833C33.1774 31.4853 32.6816 30.9895 32.0837 30.9895Z" fill="#0454AC"/>
<path opacity="0.4" d="M24.7917 2.91675H10.2083C5.83333 2.91675 4.375 5.52716 4.375 8.75008V32.0834H30.625V8.75008C30.625 5.52716 29.1667 2.91675 24.7917 2.91675Z" fill="#0454AC"/>
<path d="M14.583 25.1562H10.208C9.61009 25.1562 9.11426 24.6604 9.11426 24.0625C9.11426 23.4646 9.61009 22.9688 10.208 22.9688H14.583C15.1809 22.9688 15.6768 23.4646 15.6768 24.0625C15.6768 24.6604 15.1809 25.1562 14.583 25.1562Z" fill="#0454AC"/>
<path d="M24.792 25.1562H20.417C19.8191 25.1562 19.3232 24.6604 19.3232 24.0625C19.3232 23.4646 19.8191 22.9688 20.417 22.9688H24.792C25.3899 22.9688 25.8857 23.4646 25.8857 24.0625C25.8857 24.6604 25.3899 25.1562 24.792 25.1562Z" fill="#0454AC"/>
<path d="M14.583 18.5938H10.208C9.61009 18.5938 9.11426 18.0979 9.11426 17.5C9.11426 16.9021 9.61009 16.4062 10.208 16.4062H14.583C15.1809 16.4062 15.6768 16.9021 15.6768 17.5C15.6768 18.0979 15.1809 18.5938 14.583 18.5938Z" fill="#0454AC"/>
<path d="M24.792 18.5938H20.417C19.8191 18.5938 19.3232 18.0979 19.3232 17.5C19.3232 16.9021 19.8191 16.4062 20.417 16.4062H24.792C25.3899 16.4062 25.8857 16.9021 25.8857 17.5C25.8857 18.0979 25.3899 18.5938 24.792 18.5938Z" fill="#0454AC"/>
<path d="M14.583 12.0312H10.208C9.61009 12.0312 9.11426 11.5354 9.11426 10.9375C9.11426 10.3396 9.61009 9.84375 10.208 9.84375H14.583C15.1809 9.84375 15.6768 10.3396 15.6768 10.9375C15.6768 11.5354 15.1809 12.0312 14.583 12.0312Z" fill="#0454AC"/>
<path d="M24.792 12.0312H20.417C19.8191 12.0312 19.3232 11.5354 19.3232 10.9375C19.3232 10.3396 19.8191 9.84375 20.417 9.84375H24.792C25.3899 9.84375 25.8857 10.3396 25.8857 10.9375C25.8857 11.5354 25.3899 12.0312 24.792 12.0312Z" fill="#0454AC"/>
</svg>
