<svg width="36" height="36" viewBox="0 0 36 36" fill="none" xmlns="http://www.w3.org/2000/svg">
<path opacity="0.4" d="M12 33H24C28.14 33 31.5 29.64 31.5 25.5V10.5C31.5 6.36 28.14 3 24 3H12C7.86 3 4.5 6.36 4.5 10.5V25.5C4.5 29.64 7.86 33 12 33Z" fill="white"/>
<path d="M22.4997 8.56494H13.4997C11.9547 8.56494 10.6797 9.82494 10.6797 11.3849V12.8849C10.6797 14.4299 11.9397 15.7049 13.4997 15.7049H22.4997C24.0447 15.7049 25.3197 14.4449 25.3197 12.8849V11.3849C25.3197 9.82494 24.0597 8.56494 22.4997 8.56494Z" fill="white"/>
<path d="M12.2396 22.38C12.0296 22.38 11.8346 22.335 11.6546 22.26C11.4746 22.185 11.3096 22.08 11.1746 21.945C10.8896 21.66 10.7246 21.285 10.7246 20.88C10.7246 20.685 10.7696 20.49 10.8446 20.31C10.9196 20.115 11.0246 19.965 11.1746 19.815C11.5196 19.47 12.0446 19.305 12.5246 19.41C12.6146 19.425 12.7196 19.455 12.8096 19.5C12.8996 19.53 12.9896 19.575 13.0646 19.635C13.1546 19.68 13.2296 19.755 13.2896 19.815C13.4246 19.965 13.5446 20.115 13.6196 20.31C13.6946 20.49 13.7246 20.685 13.7246 20.88C13.7246 21.285 13.5746 21.66 13.2896 21.945C13.0046 22.23 12.6296 22.38 12.2396 22.38Z" fill="white"/>
<path d="M18.2246 22.3799C17.8346 22.3799 17.4596 22.2299 17.1746 21.9449C16.8896 21.6599 16.7246 21.2849 16.7246 20.8799C16.7246 20.4899 16.8896 20.0999 17.1746 19.8149C17.7296 19.2599 18.7346 19.2599 19.2896 19.8149C19.4246 19.9649 19.5446 20.1149 19.6196 20.3099C19.6946 20.4899 19.7246 20.6849 19.7246 20.8799C19.7246 21.2849 19.5746 21.6599 19.2896 21.9449C19.0046 22.2299 18.6296 22.3799 18.2246 22.3799Z" fill="white"/>
<path d="M24.2246 22.3799C23.8346 22.3799 23.4596 22.2299 23.1746 21.9449C22.8896 21.6599 22.7246 21.2849 22.7246 20.8799C22.7246 20.4899 22.8896 20.0999 23.1746 19.8149C23.7296 19.2599 24.7346 19.2599 25.2896 19.8149C25.5746 20.0999 25.7396 20.4899 25.7396 20.8799C25.7396 21.0749 25.6946 21.2699 25.6196 21.4499C25.5446 21.6299 25.4396 21.7949 25.2896 21.9449C25.0046 22.2299 24.6296 22.3799 24.2246 22.3799Z" fill="white"/>
<path d="M12.2396 28.38C11.8346 28.38 11.4596 28.23 11.1746 27.945C10.8896 27.66 10.7246 27.285 10.7246 26.88C10.7246 26.49 10.8896 26.0999 11.1746 25.8149C11.3096 25.6799 11.4746 25.575 11.6546 25.5C12.0296 25.35 12.4346 25.35 12.8096 25.5C12.8996 25.53 12.9896 25.575 13.0646 25.635C13.1546 25.68 13.2296 25.7549 13.2896 25.8149C13.5746 26.0999 13.7396 26.49 13.7396 26.88C13.7396 27.285 13.5746 27.66 13.2896 27.945C13.0046 28.23 12.6296 28.38 12.2396 28.38Z" fill="white"/>
<path d="M18.2246 28.3801C17.8346 28.3801 17.4596 28.2301 17.1746 27.9451C16.8896 27.6601 16.7246 27.2851 16.7246 26.8801C16.7246 26.7751 16.7396 26.6851 16.7546 26.5801C16.7846 26.4901 16.8146 26.4001 16.8446 26.3101C16.8896 26.2201 16.9346 26.1301 16.9796 26.0401C17.0396 25.9651 17.0996 25.8901 17.1746 25.8151C17.3096 25.6801 17.4746 25.5751 17.6546 25.5001C18.2096 25.2751 18.8696 25.3951 19.2896 25.8151C19.5746 26.1001 19.7246 26.4901 19.7246 26.8801C19.7246 27.2851 19.5746 27.6601 19.2896 27.9451C19.1546 28.0801 18.9896 28.1851 18.8096 28.2601C18.6296 28.3351 18.4346 28.3801 18.2246 28.3801Z" fill="white"/>
<path d="M24.2252 28.3801C24.0302 28.3801 23.8352 28.3351 23.6552 28.2601C23.4752 28.1851 23.3102 28.0801 23.1752 27.9451C22.8902 27.6601 22.7402 27.2851 22.7402 26.8801C22.7402 26.4901 22.8902 26.1001 23.1752 25.8151C23.5802 25.3951 24.2552 25.2751 24.8102 25.5001C24.9902 25.5751 25.1552 25.6801 25.2902 25.8151C25.5752 26.1001 25.7252 26.4901 25.7252 26.8801C25.7252 27.2851 25.5752 27.6601 25.2902 27.9451C25.0052 28.2301 24.6302 28.3801 24.2252 28.3801Z" fill="white"/>
</svg>
