<svg width="24" height="24" viewBox="0 0 24 24" fill="none" xmlns="http://www.w3.org/2000/svg">
<path d="M11.05 14.9498L9.2 16.7998C8.81 17.1898 8.19 17.1898 7.79 16.8098C7.68 16.6998 7.57 16.5998 7.46 16.4898C6.43 15.4498 5.5 14.3598 4.67 13.2198C3.85 12.0798 3.19 10.9398 2.71 9.80976C2.24 8.66976 2 7.57976 2 6.53976C2 5.85976 2.12 5.20976 2.36 4.60976C2.6 3.99976 2.98 3.43976 3.51 2.93976C4.15 2.30976 4.85 1.99976 5.59 1.99976C5.87 1.99976 6.15 2.05976 6.4 2.17976C6.66 2.29976 6.89 2.47976 7.07 2.73976L9.39 6.00976C9.57 6.25976 9.7 6.48976 9.79 6.70976C9.88 6.91976 9.93 7.12976 9.93 7.31976C9.93 7.55976 9.86 7.79976 9.72 8.02976C9.59 8.25976 9.4 8.49976 9.16 8.73976L8.4 9.52976C8.29 9.63976 8.24 9.76976 8.24 9.92976C8.24 10.0098 8.25 10.0798 8.27 10.1598C8.3 10.2398 8.33 10.2998 8.35 10.3598C8.53 10.6898 8.84 11.1198 9.28 11.6398C9.73 12.1598 10.21 12.6898 10.73 13.2198C10.83 13.3198 10.94 13.4198 11.04 13.5198C11.44 13.9098 11.45 14.5498 11.05 14.9498Z" fill="#4B5563"/>
<path d="M21.9716 18.3288C21.9716 18.6088 21.9216 18.8988 21.8216 19.1788C21.7916 19.2588 21.7616 19.3388 21.7216 19.4188C21.5516 19.7788 21.3316 20.1188 21.0416 20.4388C20.5516 20.9788 20.0116 21.3688 19.4016 21.6188C19.3916 21.6188 19.3816 21.6288 19.3716 21.6288C18.7816 21.8688 18.1416 21.9988 17.4516 21.9988C16.4316 21.9988 15.3416 21.7588 14.1916 21.2688C13.0416 20.7788 11.8916 20.1188 10.7516 19.2888C10.3616 18.9988 9.97156 18.7088 9.60156 18.3988L12.8716 15.1288C13.1516 15.3388 13.4016 15.4988 13.6116 15.6088C13.6616 15.6288 13.7216 15.6588 13.7916 15.6888C13.8716 15.7188 13.9516 15.7288 14.0416 15.7288C14.2116 15.7288 14.3416 15.6688 14.4516 15.5588L15.2116 14.8088C15.4616 14.5588 15.7016 14.3688 15.9316 14.2488C16.1616 14.1088 16.3916 14.0388 16.6416 14.0388C16.8316 14.0388 17.0316 14.0788 17.2516 14.1688C17.4716 14.2588 17.7016 14.3888 17.9516 14.5588L21.2616 16.9088C21.5216 17.0888 21.7016 17.2988 21.8116 17.5488C21.9116 17.7988 21.9716 18.0488 21.9716 18.3288Z" fill="#4B5563"/>
</svg>
