<svg width="22" height="22" viewBox="0 0 22 22" fill="none" xmlns="http://www.w3.org/2000/svg">
<path d="M10.9997 1.8335C5.94884 1.8335 1.83301 5.94933 1.83301 11.0002C1.83301 16.051 5.94884 20.1668 10.9997 20.1668C16.0505 20.1668 20.1663 16.051 20.1663 11.0002C20.1663 5.94933 16.0505 1.8335 10.9997 1.8335ZM14.9872 14.2727C14.8588 14.4927 14.6297 14.6118 14.3913 14.6118C14.2722 14.6118 14.153 14.5843 14.043 14.511L11.2013 12.8152C10.4955 12.3935 9.97301 11.4677 9.97301 10.6518V6.8935C9.97301 6.51766 10.2847 6.206 10.6605 6.206C11.0363 6.206 11.348 6.51766 11.348 6.8935V10.6518C11.348 10.9818 11.623 11.4677 11.9072 11.6327L14.7488 13.3285C15.0788 13.521 15.1888 13.9427 14.9872 14.2727Z" fill="black"/>
</svg>
