<svg width="19" height="18" viewBox="0 0 19 18" fill="none" xmlns="http://www.w3.org/2000/svg">
<path d="M16.25 16.5H2.75C2.4425 16.5 2.1875 16.245 2.1875 15.9375C2.1875 15.63 2.4425 15.375 2.75 15.375H16.25C16.5575 15.375 16.8125 15.63 16.8125 15.9375C16.8125 16.245 16.5575 16.5 16.25 16.5Z" fill="white"/>
<path d="M14.7649 2.60926C13.3099 1.15426 11.8849 1.11676 10.3924 2.60926L9.48493 3.51676C9.40993 3.59176 9.37993 3.71176 9.40993 3.81676C9.97993 5.80426 11.5699 7.39426 13.5574 7.96426C13.5874 7.97176 13.6174 7.97926 13.6474 7.97926C13.7299 7.97926 13.8049 7.94926 13.8649 7.88926L14.7649 6.98176C15.5074 6.24676 15.8674 5.53426 15.8674 4.81426C15.8749 4.07176 15.5149 3.35176 14.7649 2.60926Z" fill="white"/>
<path d="M12.2043 8.64711C11.9868 8.54211 11.7768 8.43711 11.5743 8.31711C11.4093 8.21961 11.2518 8.11461 11.0943 8.00211C10.9668 7.91961 10.8168 7.79961 10.6743 7.67961C10.6593 7.67211 10.6068 7.62711 10.5468 7.56711C10.2993 7.35711 10.0218 7.08711 9.77432 6.78711C9.75182 6.77211 9.71432 6.71961 9.66182 6.65211C9.58682 6.56211 9.45932 6.41211 9.34682 6.23961C9.25682 6.12711 9.15182 5.96211 9.05432 5.79711C8.93432 5.59461 8.82932 5.39211 8.72432 5.18211C8.58665 4.88711 8.19946 4.79947 7.96927 5.02966L3.75182 9.24711C3.65432 9.34461 3.56432 9.53211 3.54182 9.65961L3.13682 12.5321C3.06182 13.0421 3.20432 13.5221 3.51932 13.8446C3.78932 14.1071 4.16432 14.2496 4.56932 14.2496C4.65932 14.2496 4.74932 14.2421 4.83932 14.2271L7.71932 13.8221C7.85432 13.7996 8.04182 13.7096 8.13182 13.6121L12.3562 9.3877C12.5818 9.16211 12.4971 8.77396 12.2043 8.64711Z" fill="white"/>
</svg>
