<svg width="24" height="25" viewBox="0 0 24 25" fill="none" xmlns="http://www.w3.org/2000/svg">
<path d="M12 2.92749C9.38 2.92749 7.25 5.05749 7.25 7.67749C7.25 10.2475 9.26 12.3275 11.88 12.4175C11.96 12.4075 12.04 12.4075 12.1 12.4175C12.12 12.4175 12.13 12.4175 12.15 12.4175C12.16 12.4175 12.16 12.4175 12.17 12.4175C14.73 12.3275 16.74 10.2475 16.75 7.67749C16.75 5.05749 14.62 2.92749 12 2.92749Z" fill="#8F9AA4"/>
<path d="M17.0809 15.0783C14.2909 13.2183 9.74094 13.2183 6.93094 15.0783C5.66094 15.9283 4.96094 17.0783 4.96094 18.3083C4.96094 19.5383 5.66094 20.6783 6.92094 21.5184C8.32094 22.4584 10.1609 22.9284 12.0009 22.9284C13.8409 22.9284 15.6809 22.4584 17.0809 21.5184C18.3409 20.6684 19.0409 19.5284 19.0409 18.2884C19.0309 17.0584 18.3409 15.9183 17.0809 15.0783Z" fill="#8F9AA4"/>
</svg>
