<svg width="22" height="23" viewBox="0 0 22 23" fill="none" xmlns="http://www.w3.org/2000/svg">
<path d="M17.1875 7.83398V9.75898C16.7842 9.70398 16.3258 9.67648 15.8125 9.66732V7.83398C15.8125 4.94648 14.9967 3.02148 11 3.02148C7.00333 3.02148 6.1875 4.94648 6.1875 7.83398V9.66732C5.67417 9.67648 5.21583 9.70398 4.8125 9.75898V7.83398C4.8125 5.17565 5.45417 1.64648 11 1.64648C16.5458 1.64648 17.1875 5.17565 17.1875 7.83398Z" fill="#8F9AA4"/>
<path d="M17.1862 9.75768C16.7829 9.70268 16.3245 9.67518 15.8112 9.66602H6.1862C5.67286 9.67518 5.21453 9.70268 4.8112 9.75768C2.4737 10.0418 1.83203 11.1877 1.83203 14.2493V16.0827C1.83203 19.7493 2.7487 20.666 6.41536 20.666H15.582C19.2487 20.666 20.1654 19.7493 20.1654 16.0827V14.2493C20.1654 11.1877 19.5237 10.0418 17.1862 9.75768ZM7.98286 15.8168C7.8087 15.9818 7.57036 16.0827 7.33203 16.0827C7.21286 16.0827 7.0937 16.0552 6.9837 16.0093C6.86453 15.9635 6.77286 15.8993 6.6812 15.8168C6.5162 15.6427 6.41536 15.4043 6.41536 15.166C6.41536 15.0468 6.44286 14.9277 6.4887 14.8177C6.53453 14.7077 6.5987 14.6068 6.6812 14.5152C6.77286 14.4327 6.86453 14.3685 6.9837 14.3227C7.32286 14.176 7.7262 14.2585 7.98286 14.5152C8.06536 14.6068 8.12953 14.7077 8.17536 14.8177C8.2212 14.9277 8.2487 15.0468 8.2487 15.166C8.2487 15.4043 8.14786 15.6427 7.98286 15.8168ZM11.842 15.5143C11.7962 15.6243 11.732 15.7252 11.6495 15.8168C11.4754 15.9818 11.237 16.0827 10.9987 16.0827C10.7512 16.0827 10.522 15.9818 10.3479 15.8168C10.2654 15.7252 10.2012 15.6243 10.1554 15.5143C10.1095 15.4043 10.082 15.2852 10.082 15.166C10.082 14.9185 10.1829 14.6893 10.3479 14.5152C10.687 14.176 11.3012 14.176 11.6495 14.5152C11.8145 14.6893 11.9154 14.9185 11.9154 15.166C11.9154 15.2852 11.8879 15.4043 11.842 15.5143ZM15.3162 15.8168C15.142 15.9818 14.9037 16.0827 14.6654 16.0827C14.427 16.0827 14.1887 15.9818 14.0145 15.8168C13.8495 15.6427 13.7487 15.4135 13.7487 15.166C13.7487 14.9185 13.8495 14.6893 14.0145 14.5152C14.3629 14.176 14.977 14.176 15.3162 14.5152C15.3529 14.561 15.3895 14.6068 15.4262 14.6618C15.4629 14.7077 15.4904 14.7627 15.5087 14.8177C15.5362 14.8727 15.5545 14.9277 15.5637 14.9827C15.5729 15.0468 15.582 15.111 15.582 15.166C15.582 15.4043 15.4812 15.6427 15.3162 15.8168Z" fill="#8F9AA4"/>
</svg>
