<svg width="24" height="24" viewBox="0 0 24 24" fill="none" xmlns="http://www.w3.org/2000/svg">
<path d="M9.15039 7.48975C8.59039 7.48975 8.15039 7.93975 8.15039 8.48975C8.15039 9.03975 8.60039 9.48975 9.15039 9.48975C9.70039 9.48975 10.1504 9.03975 10.1504 8.48975C10.1504 7.93975 9.70039 7.48975 9.15039 7.48975Z" fill="#4B5563"/>
<path d="M21.46 5.03976C20.62 3.08976 18.77 1.99976 16.19 1.99976H7.81C4.6 1.99976 2 4.59976 2 7.80976V16.1898C2 18.7698 3.09 20.6198 5.04 21.4598C5.23 21.5398 5.45 21.4898 5.59 21.3498L21.35 5.58976C21.5 5.43976 21.55 5.21976 21.46 5.03976ZM10.53 12.2398C10.14 12.6198 9.63 12.7998 9.12 12.7998C8.61 12.7998 8.1 12.6098 7.71 12.2398C6.69 11.2798 5.57 9.74976 6 7.92976C6.38 6.27976 7.84 5.53976 9.12 5.53976C10.4 5.53976 11.86 6.27976 12.24 7.93976C12.66 9.74976 11.54 11.2798 10.53 12.2398Z" fill="#4B5563"/>
<path d="M19.4709 20.5298C19.6909 20.7498 19.6609 21.1098 19.3909 21.2598C18.5109 21.7498 17.4409 21.9998 16.1909 21.9998H7.81087C7.52087 21.9998 7.40087 21.6598 7.60087 21.4598L13.6409 15.4198C13.8409 15.2198 14.1509 15.2198 14.3509 15.4198L19.4709 20.5298Z" fill="#4B5563"/>
<path d="M21.9998 7.80977V16.1898C21.9998 17.4398 21.7498 18.5198 21.2598 19.3898C21.1098 19.6598 20.7498 19.6798 20.5298 19.4698L15.4098 14.3498C15.2098 14.1498 15.2098 13.8398 15.4098 13.6398L21.4498 7.59977C21.6598 7.39977 21.9998 7.51977 21.9998 7.80977Z" fill="#4B5563"/>
</svg>
