<svg width="22" height="22" viewBox="0 0 22 22" fill="none" xmlns="http://www.w3.org/2000/svg">
<path fill-rule="evenodd" clip-rule="evenodd" d="M10.8333 0C16.8165 0 21.6667 4.85022 21.6667 10.8333C21.6667 16.8164 16.8165 21.6667 10.8333 21.6667C4.85027 21.6667 0 16.8164 0 10.8333C0 4.85022 4.85027 0 10.8333 0ZM11.919 9.75H9.75239V16.25H11.919V9.75ZM10.8443 5.14582C10.0545 5.14582 9.48152 5.71558 9.48152 6.48497C9.48152 7.28548 10.0394 7.85418 10.8443 7.85418C11.618 7.85418 12.1899 7.28543 12.1899 6.5C12.1899 5.71563 11.618 5.14582 10.8443 5.14582Z" fill="#4B5563"/>
</svg>
