<svg width="45" height="45" viewBox="0 0 45 45" fill="none" xmlns="http://www.w3.org/2000/svg">
<path opacity="0.4" d="M22.5 3.75C17.5875 3.75 13.5938 7.74375 13.5938 12.6563C13.5938 17.475 17.3625 21.375 22.275 21.5438C22.425 21.525 22.575 21.525 22.6875 21.5438C22.725 21.5438 22.7437 21.5438 22.7812 21.5438C22.8 21.5438 22.8 21.5438 22.8188 21.5438C27.6187 21.375 31.3875 17.475 31.4062 12.6563C31.4062 7.74375 27.4125 3.75 22.5 3.75Z" fill="#7B34BF"/>
<path d="M32.0248 26.5312C26.7936 23.0437 18.2623 23.0437 12.9936 26.5312C10.6123 28.1249 9.2998 30.2812 9.2998 32.5874C9.2998 34.8937 10.6123 37.0312 12.9748 38.6062C15.5998 40.3687 19.0498 41.2499 22.4998 41.2499C25.9498 41.2499 29.3998 40.3687 32.0248 38.6062C34.3873 37.0124 35.6998 34.8749 35.6998 32.5499C35.6811 30.2437 34.3873 28.1062 32.0248 26.5312Z" fill="#7B34BF"/>
</svg>
