<svg width="33" height="33" viewBox="0 0 33 33" fill="none" xmlns="http://www.w3.org/2000/svg">
<g clip-path="url(#clip0_398_1953)">
<path d="M7.59188 20.199L6.478 24.3573L2.40681 24.4434C1.19013 22.1867 0.5 19.6048 0.5 16.861C0.5 14.2078 1.14525 11.7058 2.289 9.50278H2.28988L5.91437 10.1673L7.50212 13.77C7.16981 14.7388 6.98869 15.7788 6.98869 16.861C6.98881 18.0355 7.20156 19.1608 7.59188 20.199Z" fill="#FBBB00"/>
<path d="M32.2205 13.8721C32.4042 14.8399 32.5001 15.8395 32.5001 16.8611C32.5001 18.0066 32.3796 19.1239 32.1502 20.2018C31.3713 23.8694 29.3361 27.0721 26.5168 29.3384L26.5159 29.3376L21.9507 29.1046L21.3046 25.0712C23.1753 23.9741 24.6373 22.2571 25.4074 20.2018H16.8518V13.8721H25.5322H32.2205Z" fill="#518EF8"/>
<path d="M26.516 29.3375L26.5169 29.3384C23.7749 31.5423 20.2918 32.861 16.5002 32.861C10.407 32.861 5.10942 29.4553 2.40698 24.4434L7.59204 20.1991C8.94323 23.8052 12.4219 26.3723 16.5002 26.3723C18.2531 26.3723 19.8954 25.8984 21.3045 25.0711L26.516 29.3375Z" fill="#28B446"/>
<path d="M26.7129 4.54458L21.5296 8.78808C20.0712 7.87646 18.3472 7.34983 16.5002 7.34983C12.3296 7.34983 8.78587 10.0346 7.50237 13.7701L2.29006 9.50283H2.28918C4.95206 4.36877 10.3164 0.861084 16.5002 0.861084C20.3824 0.861084 23.9419 2.24396 26.7129 4.54458Z" fill="#F14336"/>
</g>
<defs>
<clipPath id="clip0_398_1953">
<rect width="32" height="32" fill="white" transform="translate(0.5 0.861084)"/>
</clipPath>
</defs>
</svg>
