<svg width="20" height="20" viewBox="0 0 20 20" fill="none" xmlns="http://www.w3.org/2000/svg">
<path d="M13.4516 2.46664L5.92656 4.96664C0.868229 6.65831 0.868229 9.41664 5.92656 11.1L8.1599 11.8416L8.90156 14.075C10.5849 19.1333 13.3516 19.1333 15.0349 14.075L17.5432 6.55831C18.6599 3.18331 16.8266 1.34164 13.4516 2.46664ZM13.7182 6.94997L10.5516 10.1333C10.4266 10.2583 10.2682 10.3166 10.1099 10.3166C9.95156 10.3166 9.79323 10.2583 9.66823 10.1333C9.42656 9.89164 9.42656 9.49164 9.66823 9.24997L12.8349 6.06664C13.0766 5.82497 13.4766 5.82497 13.7182 6.06664C13.9599 6.30831 13.9599 6.70831 13.7182 6.94997Z" fill="#4B5563"/>
</svg>
