<svg width="24" height="25" viewBox="0 0 24 25" fill="none" xmlns="http://www.w3.org/2000/svg">
<path d="M17 4.03491H7C4 4.03491 2 5.53491 2 9.03491V16.0349C2 19.5349 4 21.0349 7 21.0349H17C20 21.0349 22 19.5349 22 16.0349V9.03491C22 5.53491 20 4.03491 17 4.03491ZM17.47 10.1249L14.34 12.6249C13.68 13.1549 12.84 13.4149 12 13.4149C11.16 13.4149 10.31 13.1549 9.66 12.6249L6.53 10.1249C6.21 9.86491 6.16 9.38491 6.41 9.06491C6.67 8.74491 7.14 8.68491 7.46 8.94491L10.59 11.4449C11.35 12.0549 12.64 12.0549 13.4 11.4449L16.53 8.94491C16.85 8.68491 17.33 8.73491 17.58 9.06491C17.84 9.38491 17.79 9.86491 17.47 10.1249Z" fill="#8F9AA4"/>
</svg>
