<svg width="35" height="35" viewBox="0 0 35 35" fill="none" xmlns="http://www.w3.org/2000/svg">
<path opacity="0.4" d="M8.37049 23.3334C8.5309 22.6188 8.23924 21.598 7.72882 21.0876L4.18507 17.5438C3.07674 16.4355 2.63924 15.2542 2.96007 14.2334C3.29549 13.2126 4.3309 12.5126 5.87674 12.2501L10.4267 11.4917C11.083 11.3751 11.8851 10.7917 12.1913 10.1938L14.6997 5.16258C15.4288 3.71883 16.4205 2.91675 17.4997 2.91675C18.5788 2.91675 19.5705 3.71883 20.2997 5.16258L22.808 10.1938C22.9976 10.573 23.3913 10.9376 23.8142 11.1855L8.10799 26.8918C7.90382 27.0959 7.55382 26.9063 7.61215 26.6147L8.37049 23.3334Z" fill="#EF0067"/>
<path d="M27.2705 21.0875C26.7455 21.6125 26.4538 22.6188 26.6288 23.3333L27.6351 27.7229C28.058 29.5458 27.7955 30.9167 26.8913 31.5729C26.5268 31.8354 26.0893 31.9667 25.5788 31.9667C24.8351 31.9667 23.9601 31.6896 22.9976 31.1208L18.7247 28.5833C18.0538 28.1896 16.9455 28.1896 16.2747 28.5833L12.0018 31.1208C10.383 32.0688 8.99759 32.2292 8.10801 31.5729C7.77259 31.325 7.52467 30.9896 7.36426 30.5521L25.0976 12.8188C25.7684 12.1479 26.7163 11.8417 27.6351 12.0021L29.108 12.25C30.6538 12.5125 31.6893 13.2125 32.0247 14.2333C32.3455 15.2542 31.908 16.4354 30.7997 17.5438L27.2705 21.0875Z" fill="#EF0067"/>
</svg>
