<svg width="40" height="40" viewBox="0 0 40 40" fill="none" xmlns="http://www.w3.org/2000/svg">
<path d="M27.3664 13.25C31.4331 17.3166 31.4331 23.9166 27.3664 27.9832C23.2997 32.0499 16.6997 32.0499 12.633 27.9832C8.56634 23.9166 8.56634 17.3166 12.633 13.25C16.6997 9.18328 23.2997 9.18328 27.3664 13.25Z" fill="white"/>
<path opacity="0.4" d="M13.7497 37.3166C13.5997 37.3166 13.4331 37.2833 13.2831 37.2333C9.53307 35.7333 6.49972 33.0833 4.46639 29.5833C2.49972 26.1666 1.71639 22.3 2.23306 18.3666C2.31639 17.6833 2.96639 17.1999 3.63305 17.2833C4.31639 17.3666 4.79971 18 4.71638 18.6833C4.28304 22.05 4.94975 25.3833 6.63308 28.3166C8.36642 31.3166 10.983 33.5999 14.1997 34.8833C14.833 35.1499 15.1497 35.8666 14.8997 36.5166C14.7164 37.0166 14.2331 37.3166 13.7497 37.3166Z" fill="white"/>
<path opacity="0.4" d="M9.75033 8.71667C9.38366 8.71667 9.017 8.55004 8.767 8.23338C8.33367 7.68338 8.43368 6.90006 8.98368 6.4834C12.167 4.00007 15.967 2.68335 20.0003 2.68335C23.9337 2.68335 27.6837 3.95004 30.8337 6.35004C31.3837 6.7667 31.4837 7.55002 31.067 8.10002C30.6503 8.65002 29.867 8.75004 29.317 8.33337C26.617 6.26671 23.4003 5.18335 20.0003 5.18335C16.5337 5.18335 13.2503 6.31672 10.517 8.45005C10.2836 8.63339 10.017 8.71667 9.75033 8.71667Z" fill="white"/>
<path opacity="0.4" d="M26.2495 37.3166C25.7495 37.3166 25.2828 37.0165 25.0828 36.5332C24.8328 35.8998 25.1329 35.1665 25.7829 34.8999C28.9995 33.5999 31.6162 31.3332 33.3496 28.3332C35.0496 25.3999 35.7162 22.0665 35.2662 18.6998C35.1829 18.0165 35.6662 17.3832 36.3495 17.2999C37.0162 17.2165 37.6662 17.6999 37.7495 18.3832C38.2495 22.2999 37.4829 26.1832 35.5162 29.5999C33.4995 33.0999 30.4495 35.7332 26.6995 37.2498C26.5662 37.2832 26.4162 37.3166 26.2495 37.3166Z" fill="white"/>
</svg>
