<svg width="35" height="35" viewBox="0 0 35 35" fill="none" xmlns="http://www.w3.org/2000/svg">
<path opacity="0.4" d="M24.8325 0H10.1675C3.7975 0 0 3.7975 0 10.1675V24.8325C0 31.2025 3.7975 35 10.1675 35H24.8325C31.2025 35 35 31.2025 35 24.8325V10.1675C35 3.7975 31.2025 0 24.8325 0Z" fill="#00C6FF"/>
<path d="M28.543 12.0225C28.543 12.74 27.9655 13.335 27.2305 13.335H18.043C17.3255 13.335 16.7305 12.74 16.7305 12.0225C16.7305 11.305 17.3255 10.71 18.043 10.71H27.2305C27.9655 10.71 28.543 11.305 28.543 12.0225Z" fill="#00C6FF"/>
<path d="M13.948 10.325L10.0105 14.2625C9.74797 14.525 9.41547 14.6475 9.08297 14.6475C8.75047 14.6475 8.40047 14.525 8.15547 14.2625L6.84297 12.95C6.31797 12.4425 6.31797 11.6025 6.84297 11.095C7.35047 10.5875 8.17297 10.5875 8.69797 11.095L9.08297 11.48L12.093 8.46998C12.6005 7.96248 13.423 7.96248 13.948 8.46998C14.4555 8.97748 14.4555 9.81748 13.948 10.325Z" fill="#00C6FF"/>
<path d="M28.543 24.2725C28.543 24.99 27.9655 25.585 27.2305 25.585H18.043C17.3255 25.585 16.7305 24.99 16.7305 24.2725C16.7305 23.555 17.3255 22.96 18.043 22.96H27.2305C27.9655 22.96 28.543 23.555 28.543 24.2725Z" fill="#00C6FF"/>
<path d="M13.948 22.575L10.0105 26.5125C9.74797 26.775 9.41547 26.8975 9.08297 26.8975C8.75047 26.8975 8.40047 26.775 8.15547 26.5125L6.84297 25.2C6.31797 24.6925 6.31797 23.8525 6.84297 23.345C7.35047 22.8375 8.17297 22.8375 8.69797 23.345L9.08297 23.73L12.093 20.72C12.6005 20.2125 13.423 20.2125 13.948 20.72C14.4555 21.2275 14.4555 22.0675 13.948 22.575Z" fill="#00C6FF"/>
</svg>
