<svg width="13" height="17" viewBox="0 0 13 17" fill="none" xmlns="http://www.w3.org/2000/svg">
<path d="M6.6221 7.43303C6.5478 7.4256 6.45864 7.4256 6.37691 7.43303C4.60853 7.37359 3.20422 5.9247 3.20422 4.14146C3.20422 2.32107 4.6754 0.842468 6.50322 0.842468C8.32361 0.842468 9.80221 2.32107 9.80221 4.14146C9.79478 5.9247 8.39048 7.37359 6.6221 7.43303Z" stroke="black" stroke-width="1.58357" stroke-linecap="round" stroke-linejoin="round"/>
<path d="M2.90705 10.1746C1.10895 11.3783 1.10895 13.3399 2.90705 14.5361C4.95034 15.9033 8.30135 15.9033 10.3446 14.5361C12.1427 13.3325 12.1427 11.3709 10.3446 10.1746C8.30878 8.81492 4.95777 8.81492 2.90705 10.1746Z" stroke="black" stroke-width="1.58357" stroke-linecap="round" stroke-linejoin="round"/>
</svg>
