<svg width="80" height="80" viewBox="0 0 80 80" fill="none" xmlns="http://www.w3.org/2000/svg">
<path d="M65.0344 19.5L45.2344 8.06663C42.001 6.19996 38.001 6.19996 34.7344 8.06663L14.9677 19.5C11.7344 21.3666 9.73438 24.8333 9.73438 28.6V51.4C9.73438 55.1333 11.7344 58.6 14.9677 60.5L34.7677 71.9333C38.001 73.8 42.001 73.8 45.2677 71.9333L65.0677 60.5C68.301 58.6333 70.301 55.1666 70.301 51.4V28.6C70.2677 24.8333 68.2677 21.4 65.0344 19.5ZM40.001 24.4666C44.301 24.4666 47.7677 27.9333 47.7677 32.2333C47.7677 36.5333 44.301 40 40.001 40C35.701 40 32.2344 36.5333 32.2344 32.2333C32.2344 27.9666 35.701 24.4666 40.001 24.4666ZM48.9344 55.5333H31.0677C28.3677 55.5333 26.801 52.5333 28.301 50.3C30.5677 46.9333 34.9677 44.6666 40.001 44.6666C45.0344 44.6666 49.4344 46.9333 51.701 50.3C53.201 52.5 51.601 55.5333 48.9344 55.5333Z" fill="#902BB0"/>
</svg>
