<svg width="18" height="18" viewBox="0 0 18 18" fill="none" xmlns="http://www.w3.org/2000/svg">
<path d="M16.0093 1.9917C13.3459 -0.6639 9.02703 -0.6639 6.38171 1.9917C4.51918 3.83712 3.96132 6.49272 4.68114 8.83325L0.452214 13.0642C0.155289 13.3703 -0.0516579 13.9734 0.0113261 14.4055L0.281257 16.368C0.380232 17.0161 0.983079 17.6282 1.63091 17.7183L3.59241 17.9883C4.0243 18.0513 4.62715 17.8533 4.93307 17.5382L5.67089 16.8001C5.85084 16.629 5.85084 16.341 5.67089 16.1609L3.92533 14.4145C3.6644 14.1535 3.6644 13.7214 3.92533 13.4603C4.18626 13.1992 4.61815 13.1992 4.87909 13.4603L6.63364 15.2157C6.8046 15.3867 7.09252 15.3867 7.26348 15.2157L9.17099 13.3163C11.5014 14.0454 14.1557 13.4783 16.0093 11.6329C18.6636 8.97729 18.6636 4.6473 16.0093 1.9917ZM11.2495 8.99529C10.0078 8.99529 9.00004 7.98706 9.00004 6.74478C9.00004 5.5025 10.0078 4.49427 11.2495 4.49427C12.4911 4.49427 13.4989 5.5025 13.4989 6.74478C13.4989 7.98706 12.4911 8.99529 11.2495 8.99529Z" fill="#4B5563"/>
</svg>
